<svg width="33" height="33" viewBox="0 0 33 33" fill="none" xmlns="http://www.w3.org/2000/svg">
<g clip-path="url(#clip0_1_50)">
<path fill-rule="evenodd" clip-rule="evenodd" d="M12.244 12.88C11.014 13.83 9.936 15.136 9.178 16.538C9.15297 16.5847 9.13987 16.6369 9.13987 16.69C9.13987 16.743 9.15297 16.7952 9.178 16.842L8.738 17.079L9.178 16.841C9.936 18.244 11.014 19.549 12.244 20.5C13.476 21.452 14.828 22.023 16.14 22.023C17.452 22.023 18.803 21.452 20.036 20.5C21.266 19.55 22.344 18.244 23.102 16.842C23.127 16.7952 23.14 16.743 23.14 16.69C23.14 16.6369 23.127 16.5847 23.102 16.538L23.542 16.301L23.102 16.539C22.344 15.137 21.265 13.831 20.036 12.881C18.803 11.928 17.452 11.357 16.14 11.357C14.827 11.357 13.476 11.928 12.244 12.881V12.88ZM11.632 12.09C12.978 11.048 14.54 10.356 16.14 10.356C17.74 10.356 19.301 11.048 20.647 12.088C21.997 13.131 23.163 14.548 23.981 16.062C24.192 16.453 24.192 16.926 23.981 17.317C23.163 18.831 21.996 20.247 20.647 21.29C19.301 22.33 17.74 23.022 16.14 23.022C14.54 23.022 12.978 22.33 11.632 21.29C10.283 20.247 9.117 18.83 8.298 17.316C8.088 16.925 8.088 16.452 8.298 16.062C9.117 14.547 10.283 13.131 11.632 12.088V12.09Z" fill="#949494"/>
<path fill-rule="evenodd" clip-rule="evenodd" d="M17.554 15.2759C17.3695 15.0849 17.1488 14.9326 16.9048 14.8277C16.6608 14.7229 16.3984 14.6677 16.1328 14.6654C15.8673 14.6631 15.6039 14.7137 15.3581 14.8143C15.1123 14.9149 14.889 15.0634 14.7012 15.2512C14.5134 15.4389 14.3649 15.6622 14.2644 15.908C14.1638 16.1538 14.1132 16.4172 14.1155 16.6827C14.1178 16.9483 14.173 17.2107 14.2778 17.4547C14.3826 17.6988 14.535 17.9194 14.726 18.1039C15.1032 18.4683 15.6084 18.6698 16.1328 18.6653C16.6572 18.6607 17.1588 18.4504 17.5297 18.0796C17.9005 17.7088 18.1108 17.2071 18.1154 16.6827C18.1199 16.1584 17.9183 15.6531 17.554 15.2759ZM18.261 14.5689C17.9843 14.2824 17.6532 14.0539 17.2872 13.8966C16.9212 13.7394 16.5276 13.6567 16.1292 13.6532C15.7309 13.6497 15.3358 13.7256 14.9672 13.8765C14.5985 14.0273 14.2635 14.2501 13.9818 14.5318C13.7002 14.8134 13.4774 15.1484 13.3265 15.5171C13.1757 15.8858 13.0998 16.2808 13.1033 16.6791C13.1067 17.0775 13.1895 17.4711 13.3467 17.8372C13.5039 18.2032 13.7325 18.5342 14.019 18.8109C14.5848 19.3574 15.3426 19.6598 16.1292 19.653C16.9158 19.6461 17.6682 19.3306 18.2245 18.7744C18.7807 18.2182 19.0962 17.4657 19.103 16.6791C19.1099 15.8926 18.8075 15.1347 18.261 14.5689Z" fill="#949494"/>
</g>
<defs>
<clipPath id="clip0_1_50">
<rect width="32" height="32" fill="white" transform="translate(0.140015 0.689941)"/>
</clipPath>
</defs>
</svg>
